<svg width="21" height="21" viewBox="0 0 21 21" fill="none" xmlns="http://www.w3.org/2000/svg">
<path d="M9.35551 19.3227H5.0982C3.71871 19.318 2.60023 18.2625 2.5901 16.9559V8.93501C2.5928 8.49762 2.79944 8.08371 3.15465 7.8042L3.90431 7.27824C4.17799 7.00205 4.20582 6.58062 3.9706 6.27429C3.73539 5.96795 3.30352 5.86318 2.94179 6.0247L2.17362 6.56819C1.39875 7.13607 0.93892 8.00714 0.924194 8.93501V16.9647C0.929284 19.1461 2.79507 20.9133 5.0982 20.9181H9.35551C9.81554 20.9181 10.1885 20.5649 10.1885 20.1292C10.1885 19.6935 9.81554 19.3403 9.35551 19.3403V19.3227Z" fill="#03DAC6"/>
<path d="M20.9242 8.9175C20.9145 7.99644 20.4696 7.12796 19.7118 6.55068L13.3166 1.72061C11.9113 0.650666 9.90933 0.650666 8.50399 1.72061L6.47714 3.11441C6.09634 3.37342 6.00932 3.87577 6.28278 4.23645C6.55624 4.59713 7.08663 4.67955 7.46743 4.42054L9.52204 2.96538C10.3285 2.33654 11.4921 2.33654 12.2985 2.96538L18.6938 7.79545C19.0618 8.07181 19.2793 8.4902 19.2861 8.93503V16.9647C19.2861 18.2719 18.1673 19.3315 16.7872 19.3315H14.8899C14.6957 19.3315 14.5383 19.1824 14.5383 18.9984V15.378C14.5383 14.2244 13.5536 13.2878 12.3356 13.283H9.55906C8.97241 13.283 8.4098 13.5037 7.99498 13.8966C7.58015 14.2895 7.34711 14.8224 7.34711 15.378V16.7631C7.34711 17.1988 7.72004 17.552 8.18006 17.552C8.64009 17.552 9.01301 17.1988 9.01301 16.7631V15.378C9.01053 15.2417 9.06599 15.1101 9.16692 15.0129C9.26786 14.9156 9.40582 14.8608 9.5498 14.8609H12.3263C12.6228 14.8609 12.8631 15.0885 12.8631 15.3693V18.9984C12.8682 20.0552 13.7742 20.9094 14.8899 20.9094H16.7409C19.0462 20.9094 20.915 19.1394 20.915 16.9559L20.9242 8.9175Z" fill="#03DAC6"/>
</svg>
