<svg width="164" height="160" viewBox="0 0 164 160" fill="none" xmlns="http://www.w3.org/2000/svg">
<path d="M71.4769 -9.71784L33.3686 -13.0334L14.7477 9.50373L25.1907 46.3029L63.299 49.6185L81.9199 27.0814L71.4769 -9.71784Z" fill="url(#paint0_linear_3_17)"/>
<path d="M129.079 36.6187L90.9705 33.3032L72.3496 55.8402L82.7926 92.6395L120.901 95.955L139.522 73.4179L129.079 36.6187Z" fill="url(#paint1_linear_3_17)"/>
<path d="M186.26 83.4785L148.151 80.163L129.531 102.7L139.974 139.499L178.082 142.815L196.703 120.278L186.26 83.4785Z" fill="url(#paint2_linear_3_17)"/>
<path d="M139.051 -32.4166L100.943 -35.7322L82.3222 -13.1951L92.7652 23.6041L130.874 26.9197L149.494 4.38258L139.051 -32.4166Z" fill="url(#paint3_linear_3_17)"/>
<path d="M196.232 14.4432L158.124 11.1277L139.503 33.6648L149.946 70.464L188.054 73.7795L206.675 51.2424L196.232 14.4432Z" fill="url(#paint4_linear_3_17)"/>
<defs>
<linearGradient id="paint0_linear_3_17" x1="31.2563" y1="-2.13007" x2="48.5471" y2="42.3201" gradientUnits="userSpaceOnUse">
<stop stop-color="#3A49C6"/>
<stop offset="0.4375" stop-color="#529CFB"/>
<stop offset="1" stop-color="#91D18F"/>
</linearGradient>
<linearGradient id="paint1_linear_3_17" x1="88.8583" y1="44.2064" x2="106.149" y2="88.6566" gradientUnits="userSpaceOnUse">
<stop stop-color="#3A49C6"/>
<stop offset="0.4375" stop-color="#529CFB"/>
<stop offset="1" stop-color="#91D18F"/>
</linearGradient>
<linearGradient id="paint2_linear_3_17" x1="146.039" y1="91.0663" x2="163.33" y2="135.516" gradientUnits="userSpaceOnUse">
<stop stop-color="#3A49C6"/>
<stop offset="0.4375" stop-color="#529CFB"/>
<stop offset="1" stop-color="#91D18F"/>
</linearGradient>
<linearGradient id="paint3_linear_3_17" x1="98.8309" y1="-24.8289" x2="116.122" y2="19.6213" gradientUnits="userSpaceOnUse">
<stop stop-color="#3A49C6"/>
<stop offset="0.4375" stop-color="#529CFB"/>
<stop offset="1" stop-color="#91D18F"/>
</linearGradient>
<linearGradient id="paint4_linear_3_17" x1="156.012" y1="22.031" x2="173.303" y2="66.4811" gradientUnits="userSpaceOnUse">
<stop stop-color="#3A49C6"/>
<stop offset="0.4375" stop-color="#529CFB"/>
<stop offset="1" stop-color="#91D18F"/>
</linearGradient>
</defs>
</svg>
